<?xml version="1.0" encoding="UTF-8" standalone="no"?>
<!-- Created with Inkscape (http://www.inkscape.org/) -->

<svg
   xmlns:dc="http://purl.org/dc/elements/1.1/"
   xmlns:cc="http://creativecommons.org/ns#"
   xmlns:rdf="http://www.w3.org/1999/02/22-rdf-syntax-ns#"
   xmlns:svg="http://www.w3.org/2000/svg"
   xmlns="http://www.w3.org/2000/svg"
   xmlns:sodipodi="http://sodipodi.sourceforge.net/DTD/sodipodi-0.dtd"
   xmlns:inkscape="http://www.inkscape.org/namespaces/inkscape"
   id="svg6568"
   version="1.1"
   inkscape:version="0.91 r13725"
   xml:space="preserve"
   width="726.01617"
   height="432.82495"
   viewBox="0 0 726.01617 432.82495"
   sodipodi:docname="Aikido Pictogram.svg"><title
     id="title28481">Aikido Pictogram</title><metadata
     id="metadata6574"><rdf:RDF><cc:Work
         rdf:about=""><dc:format>image/svg+xml</dc:format><dc:type
           rdf:resource="http://purl.org/dc/dcmitype/StillImage" /><dc:title>Aikido Pictogram</dc:title></cc:Work></rdf:RDF></metadata><defs
     id="defs6572" /><sodipodi:namedview
     pagecolor="#ffffff"
     bordercolor="#666666"
     borderopacity="1"
     objecttolerance="10"
     gridtolerance="10"
     guidetolerance="10"
     inkscape:pageopacity="0"
     inkscape:pageshadow="2"
     inkscape:window-width="1728"
     inkscape:window-height="1089"
     id="namedview6570"
     showgrid="false"
     fit-margin-top="0"
     fit-margin-left="0"
     fit-margin-right="0"
     fit-margin-bottom="0"
     inkscape:zoom="0.704406"
     inkscape:cx="369.56112"
     inkscape:cy="159.38428"
     inkscape:window-x="-8"
     inkscape:window-y="-8"
     inkscape:window-maximized="1"
     inkscape:current-layer="g6576" /><g
     id="g6576"
     inkscape:groupmode="layer"
     inkscape:label="Lanchakon"
     transform="matrix(1.25,0,0,-1.25,226.32994,461.96344)"><g
       id="g6578" /><g
       id="g28467"><path
         d="m 303.39275,205.23679 93.943,0 c 0.125,-10.808 -0.637,-21.393 -2.21,-31.492 -4.67,-29.986 -16.482,-55.696 -31.741,-77.215 -13.331,-18.8 -29.293,-34.401 -46.298,-45.463 -27.816,-18.095 -58.421,-24.045 -80.363,-25.325 l -5.058,0 0,41.121 38.262,0 27.337,30.135 11.042,56.368 -48.946,0 -8.691,-9.58 -23.075,20.933 36.758,40.518 39.04,0 z"
         style="fill:#ffffff;fill-opacity:1;stroke:#000000;stroke-width:4.80000019;stroke-linecap:round;stroke-linejoin:round;stroke-miterlimit:8;stroke-dasharray:none;stroke-opacity:1"
         id="path28414"
         inkscape:connector-curvature="0" /><g
         style="fill:#000000;fill-opacity:1;stroke:#000000;stroke-width:4.80000019;stroke-linecap:round;stroke-linejoin:round;stroke-miterlimit:8;stroke-dasharray:none;stroke-opacity:1"
         transform="translate(-196.66425,-199.55921)"
         id="g28418"><path
           inkscape:connector-curvature="0"
           id="path28420"
           style="fill:#000000;fill-opacity:1;stroke:#000000;stroke-width:4.80000019;stroke-linecap:round;stroke-linejoin:round;stroke-miterlimit:8;stroke-dasharray:none;stroke-opacity:1"
           d="m 540.344,322.721 c 0,7.988 -3.308,15.976 -8.957,21.624 -5.648,5.649 -13.636,8.957 -21.625,8.957 -7.988,0 -15.976,-3.308 -21.624,-8.957 -5.649,-5.648 -8.957,-13.636 -8.957,-21.624 0,-7.988 3.308,-15.977 8.957,-21.625 5.648,-5.648 13.636,-8.957 21.624,-8.957 7.989,0 15.977,3.309 21.625,8.957 5.649,5.649 8.957,13.637 8.957,21.625 z" /><path
           inkscape:connector-curvature="0"
           id="path28422"
           style="fill:#000000;fill-opacity:1;stroke:#000000;stroke-width:4.80000019;stroke-linecap:round;stroke-linejoin:round;stroke-miterlimit:8;stroke-dasharray:none;stroke-opacity:1"
           d="m 428.33,254.405 0,-29.104 -13.282,0 c -3.393,0.483 -6.722,2.275 -9.031,4.919 -2.308,2.643 -3.597,6.138 -3.597,9.633 0,3.495 1.289,6.99 3.597,9.634 2.309,2.643 5.638,4.435 9.031,4.918 l 13.282,0 z" /><path
           inkscape:connector-curvature="0"
           id="path28424"
           style="fill:#000000;fill-opacity:1;stroke:#000000;stroke-width:4.80000019;stroke-linecap:round;stroke-linejoin:round;stroke-miterlimit:8;stroke-dasharray:none;stroke-opacity:1"
           d="m 425.019,363.589 21.556,-19.555 -8.924,-9.837 c -2.638,-2.189 -6.202,-3.45 -9.711,-3.383 -3.509,0.066 -6.963,1.46 -9.551,3.808 -2.589,2.348 -4.312,5.651 -4.719,9.137 -0.406,3.486 0.503,7.155 2.425,9.993 l 8.924,9.837 z" /><path
           inkscape:connector-curvature="0"
           id="path28426"
           style="fill:#000000;fill-opacity:1;stroke:#000000;stroke-width:4.80000019;stroke-linecap:round;stroke-linejoin:round;stroke-miterlimit:8;stroke-dasharray:none;stroke-opacity:1"
           d="m 370.678,447.391 c 0,7.988 -3.308,15.976 -8.957,21.624 -5.648,5.649 -13.636,8.958 -21.624,8.958 -7.989,0 -15.977,-3.309 -21.625,-8.958 -5.648,-5.648 -8.957,-13.636 -8.957,-21.624 0,-7.988 3.309,-15.976 8.957,-21.625 5.648,-5.648 13.636,-8.957 21.625,-8.957 7.988,0 15.976,3.309 21.624,8.957 5.649,5.649 8.957,13.637 8.957,21.625 z" /><path
           inkscape:connector-curvature="0"
           id="path28428"
           style="fill:#000000;fill-opacity:1;stroke:#000000;stroke-width:4.80000019;stroke-linecap:round;stroke-linejoin:round;stroke-miterlimit:8;stroke-dasharray:none;stroke-opacity:1"
           d="m 372.103,315.63 19.555,21.556 9.837,-8.924 c 2.188,-2.638 3.45,-6.201 3.383,-9.71 -0.066,-3.509 -1.46,-6.964 -3.808,-9.552 -2.348,-2.589 -5.651,-4.312 -9.137,-4.718 -3.486,-0.407 -7.155,0.502 -9.993,2.424 l -9.837,8.924 z" /><path
           inkscape:connector-curvature="0"
           id="path28430"
           style="fill:#000000;fill-opacity:1;stroke:#000000;stroke-width:4.80000019;stroke-linecap:round;stroke-linejoin:round;stroke-miterlimit:8;stroke-dasharray:none;stroke-opacity:1"
           d="m 437.984,478.961 c 26.809,-8.28 66.604,-30.652 62.073,-74.165 l 93.943,0 c -0.744,64.321 -32.919,136.593 -112.821,161.934 l -22.056,-24.313 -34.006,0 -22.327,-24.611 34.006,0 -9.68,-10.671 -34.006,0 -22.327,-24.611 34.006,0 c 11.233,0 22.462,-0.249 33.195,-3.563 z" /><path
           inkscape:connector-curvature="0"
           id="path28432"
           style="fill:#000000;fill-opacity:1;stroke:#000000;stroke-width:4.80000019;stroke-linecap:round;stroke-linejoin:round;stroke-miterlimit:8;stroke-dasharray:none;stroke-opacity:1"
           d="m 288.833,327.88 -81.174,26.589 -4.7,-5.181 -31.021,-34.194 -31.02,-34.195 -72.453,0 L 18,225.27 l 162.014,0 35.018,38.601 42.551,-38.601 113.491,0 -40.352,36.605 0,28.004 -41.889,38.001 z" /></g><g
         style="stroke:#ffffff;stroke-width:4.80000019;stroke-linecap:round;stroke-linejoin:round;stroke-miterlimit:8;stroke-dasharray:none;stroke-opacity:1"
         transform="translate(-196.66425,-199.55921)"
         id="g28434"><path
           inkscape:connector-curvature="0"
           id="path28436"
           style="fill:none;stroke:#ffffff;stroke-width:4.80000019;stroke-linecap:round;stroke-linejoin:round;stroke-miterlimit:8;stroke-dasharray:none;stroke-opacity:1"
           d="m 250.882,293.265 19.555,21.556 9.837,-8.924 c 2.189,-2.638 3.45,-6.202 3.383,-9.711 -0.066,-3.509 -1.46,-6.963 -3.808,-9.551 -2.348,-2.589 -5.651,-4.312 -9.137,-4.719 -3.486,-0.406 -7.155,0.503 -9.993,2.425 l -9.837,8.924 z" /></g><path
         d="m 67.64875,128.32079 24.52,0 29.714,32.754 46.356,-42.053 5.418,-4.915 23.118,25.484 -21.746,19.728 -46.357,42.053 c -4.788,4.344 -7.76,10.086 -13.369,13.301 -6.79,3.892 -14.304,6.649 -22.046,8.076 -7.742,1.427 -15.712,1.523 -23.476,0.294 -7.765,-1.23 -15.323,-3.784 -22.241,-7.522 -6.919,-3.738 -13.197,-8.659 -18.48,-14.482 -5.283,-5.824 -9.571,-12.55 -12.619,-19.799 -3.049,-7.248 -4.857,-15.019 -5.326,-22.866 -0.47,-7.847 0.4,-15.77 2.572,-23.337 2.172,-7.567 5.646,-14.778 10.178,-21.158 0.284,-0.399 3.078,-2.933 3.441,-3.262 l 23.178,-21.027 27.023,29.788 -9.858,8.943 z"
         style="fill:#ffffff;fill-opacity:1;stroke:#000000;stroke-width:4.80000019;stroke-linecap:round;stroke-linejoin:round;stroke-miterlimit:8;stroke-dasharray:none;stroke-opacity:1"
         id="path28416"
         inkscape:connector-curvature="0" /></g></g></svg>